<mxfile host="65bd71144e">
    <diagram id="8UJkZ9n5Q8soOCdwgCeh" name="Page-1">
        <mxGraphModel dx="1483" dy="784" grid="1" gridSize="10" guides="1" tooltips="1" connect="1" arrows="1" fold="1" page="1" pageScale="1" pageWidth="850" pageHeight="1100" math="0" shadow="0">
            <root>
                <mxCell id="0"/>
                <mxCell id="1" parent="0"/>
                <mxCell id="actor_user" value="Người dùng" style="shape=umlActor;verticalLabelPosition=bottom;verticalAlign=top;html=1;" parent="1" vertex="1">
                    <mxGeometry x="100" y="80" width="30" height="60" as="geometry"/>
                </mxCell>
                <mxCell id="UI_class" value="&lt;b&gt;:Giao diện&lt;/b&gt;" style="html=1;whiteSpace=wrap;" parent="1" vertex="1">
                    <mxGeometry x="220" y="80" width="100" height="50" as="geometry"/>
                </mxCell>
                <mxCell id="Product_controller_class" value="&lt;b&gt;:ProductController&lt;/b&gt;" style="html=1;whiteSpace=wrap;" vertex="1" parent="1">
                    <mxGeometry x="380" y="80" width="120" height="50" as="geometry"/>
                </mxCell>
                <mxCell id="Product_class" value="&lt;b&gt;:Product&lt;/b&gt;" style="html=1;whiteSpace=wrap;" parent="1" vertex="1">
                    <mxGeometry x="560" y="80" width="100" height="50" as="geometry"/>
                </mxCell>
                <mxCell id="Category_class" value="&lt;b&gt;:Category&lt;/b&gt;" style="html=1;whiteSpace=wrap;" parent="1" vertex="1">
                    <mxGeometry x="720" y="80" width="100" height="50" as="geometry"/>
                </mxCell>
                <mxCell id="Inventory_class" value="&lt;b&gt;:Inventory&lt;/b&gt;" style="html=1;whiteSpace=wrap;" parent="1" vertex="1">
                    <mxGeometry x="880" y="80" width="100" height="50" as="geometry"/>
                </mxCell>
                <mxCell id="DB_class" value="&lt;b&gt;:Database&lt;/b&gt;" style="html=1;whiteSpace=wrap;" vertex="1" parent="1">
                    <mxGeometry x="1040" y="80" width="100" height="50" as="geometry"/>
                </mxCell>
                <mxCell id="User_line" value="" style="html=1;points=[];perimeter=orthogonalPerimeter;outlineConnect=0;targetShapes=umlLifeline;portConstraint=eastwest;newEdgeStyle={&quot;edgeStyle&quot;:&quot;elbowEdgeStyle&quot;,&quot;elbow&quot;:&quot;vertical&quot;,&quot;curved&quot;:0,&quot;rounded&quot;:0};" parent="1" vertex="1">
                    <mxGeometry x="115" y="160" width="10" height="920" as="geometry"/>
                </mxCell>
                <mxCell id="UI_line" value="" style="html=1;points=[];perimeter=orthogonalPerimeter;outlineConnect=0;targetShapes=umlLifeline;portConstraint=eastwest;newEdgeStyle={&quot;edgeStyle&quot;:&quot;elbowEdgeStyle&quot;,&quot;elbow&quot;:&quot;vertical&quot;,&quot;curved&quot;:0,&quot;rounded&quot;:0};" parent="1" vertex="1">
                    <mxGeometry x="265" y="160" width="10" height="930" as="geometry"/>
                </mxCell>
                <mxCell id="Product_controller_line" value="" style="html=1;points=[];perimeter=orthogonalPerimeter;outlineConnect=0;targetShapes=umlLifeline;portConstraint=eastwest;newEdgeStyle={&quot;edgeStyle&quot;:&quot;elbowEdgeStyle&quot;,&quot;elbow&quot;:&quot;vertical&quot;,&quot;curved&quot;:0,&quot;rounded&quot;:0};" vertex="1" parent="1">
                    <mxGeometry x="435" y="160" width="10" height="920" as="geometry"/>
                </mxCell>
                <mxCell id="Product_line" value="" style="html=1;points=[];perimeter=orthogonalPerimeter;outlineConnect=0;targetShapes=umlLifeline;portConstraint=eastwest;newEdgeStyle={&quot;edgeStyle&quot;:&quot;elbowEdgeStyle&quot;,&quot;elbow&quot;:&quot;vertical&quot;,&quot;curved&quot;:0,&quot;rounded&quot;:0};" parent="1" vertex="1">
                    <mxGeometry x="605" y="160" width="10" height="910" as="geometry"/>
                </mxCell>
                <mxCell id="Category_line" value="" style="html=1;points=[];perimeter=orthogonalPerimeter;outlineConnect=0;targetShapes=umlLifeline;portConstraint=eastwest;newEdgeStyle={&quot;edgeStyle&quot;:&quot;elbowEdgeStyle&quot;,&quot;elbow&quot;:&quot;vertical&quot;,&quot;curved&quot;:0,&quot;rounded&quot;:0};" parent="1" vertex="1">
                    <mxGeometry x="765" y="160" width="10" height="850" as="geometry"/>
                </mxCell>
                <mxCell id="Inventory_line" value="" style="html=1;points=[];perimeter=orthogonalPerimeter;outlineConnect=0;targetShapes=umlLifeline;portConstraint=eastwest;newEdgeStyle={&quot;edgeStyle&quot;:&quot;elbowEdgeStyle&quot;,&quot;elbow&quot;:&quot;vertical&quot;,&quot;curved&quot;:0,&quot;rounded&quot;:0};" parent="1" vertex="1">
                    <mxGeometry x="925" y="160" width="10" height="850" as="geometry"/>
                </mxCell>
                <mxCell id="DB_line" value="" style="html=1;points=[];perimeter=orthogonalPerimeter;outlineConnect=0;targetShapes=umlLifeline;portConstraint=eastwest;newEdgeStyle={&quot;edgeStyle&quot;:&quot;elbowEdgeStyle&quot;,&quot;elbow&quot;:&quot;vertical&quot;,&quot;curved&quot;:0,&quot;rounded&quot;:0};" vertex="1" parent="1">
                    <mxGeometry x="1085" y="160" width="10" height="840" as="geometry"/>
                </mxCell>
                <mxCell id="User_to_line" value="" style="endArrow=none;dashed=1;html=1;rounded=0;exitX=0.5;exitY=1;exitDx=0;exitDy=0;entryX=0.5;entryY=0;entryDx=0;entryDy=0;" edge="1" parent="1" source="actor_user" target="User_line">
                    <mxGeometry width="50" height="50" relative="1" as="geometry">
                        <mxPoint x="390" y="340" as="sourcePoint"/>
                        <mxPoint x="440" y="290" as="targetPoint"/>
                    </mxGeometry>
                </mxCell>
                <mxCell id="UI_class_to_line" value="" style="endArrow=none;dashed=1;html=1;rounded=0;exitX=0.5;exitY=1;exitDx=0;exitDy=0;entryX=0.5;entryY=0;entryDx=0;entryDy=0;" parent="1" source="UI_class" target="UI_line" edge="1">
                    <mxGeometry width="50" height="50" relative="1" as="geometry">
                        <mxPoint x="390" y="340" as="sourcePoint"/>
                        <mxPoint x="440" y="290" as="targetPoint"/>
                    </mxGeometry>
                </mxCell>
                <mxCell id="Product_controller_to_line" value="" style="endArrow=none;dashed=1;html=1;rounded=0;exitX=0.5;exitY=1;exitDx=0;exitDy=0;entryX=0.5;entryY=0;entryDx=0;entryDy=0;" edge="1" parent="1" source="Product_controller_class" target="Product_controller_line">
                    <mxGeometry width="50" height="50" relative="1" as="geometry">
                        <mxPoint x="390" y="340" as="sourcePoint"/>
                        <mxPoint x="440" y="290" as="targetPoint"/>
                    </mxGeometry>
                </mxCell>
                <mxCell id="Product_to_line" value="" style="endArrow=none;dashed=1;html=1;rounded=0;exitX=0.5;exitY=1;exitDx=0;exitDy=0;entryX=0.5;entryY=0;entryDx=0;entryDy=0;" parent="1" source="Product_class" target="Product_line" edge="1">
                    <mxGeometry width="50" height="50" relative="1" as="geometry">
                        <mxPoint x="390" y="340" as="sourcePoint"/>
                        <mxPoint x="440" y="290" as="targetPoint"/>
                    </mxGeometry>
                </mxCell>
                <mxCell id="Category_to_line" value="" style="endArrow=none;dashed=1;html=1;rounded=0;exitX=0.5;exitY=1;exitDx=0;exitDy=0;entryX=0.5;entryY=0;entryDx=0;entryDy=0;" parent="1" source="Category_class" target="Category_line" edge="1">
                    <mxGeometry width="50" height="50" relative="1" as="geometry">
                        <mxPoint x="390" y="340" as="sourcePoint"/>
                        <mxPoint x="440" y="290" as="targetPoint"/>
                    </mxGeometry>
                </mxCell>
                <mxCell id="Inventory_to_line" value="" style="endArrow=none;dashed=1;html=1;rounded=0;exitX=0.5;exitY=1;exitDx=0;exitDy=0;entryX=0.5;entryY=0;entryDx=0;entryDy=0;" parent="1" source="Inventory_class" target="Inventory_line" edge="1">
                    <mxGeometry width="50" height="50" relative="1" as="geometry">
                        <mxPoint x="390" y="340" as="sourcePoint"/>
                        <mxPoint x="440" y="290" as="targetPoint"/>
                    </mxGeometry>
                </mxCell>
                <mxCell id="DB_to_line" value="" style="endArrow=none;dashed=1;html=1;rounded=0;exitX=0.5;exitY=1;exitDx=0;exitDy=0;entryX=0.5;entryY=0;entryDx=0;entryDy=0;" edge="1" parent="1" source="DB_class" target="DB_line">
                    <mxGeometry width="50" height="50" relative="1" as="geometry">
                        <mxPoint x="390" y="340" as="sourcePoint"/>
                        <mxPoint x="440" y="290" as="targetPoint"/>
                    </mxGeometry>
                </mxCell>
                <mxCell id="create_title" value="&lt;b&gt;Tạo sản phẩm&lt;/b&gt;" style="text;html=1;strokeColor=none;fillColor=none;align=left;verticalAlign=middle;whiteSpace=wrap;rounded=0;" vertex="1" parent="1">
                    <mxGeometry x="40" y="170" width="80" height="30" as="geometry"/>
                </mxCell>
                <mxCell id="msg1" value="1: Nhập thông tin sản phẩm" style="html=1;verticalAlign=bottom;endArrow=block;edgeStyle=elbowEdgeStyle;elbow=vertical;curved=0;rounded=0;" parent="1" source="User_line" target="UI_line" edge="1">
                    <mxGeometry width="80" relative="1" as="geometry">
                        <mxPoint x="130" y="200" as="sourcePoint"/>
                        <mxPoint x="210" y="200" as="targetPoint"/>
                        <Array as="points">
                            <mxPoint x="190" y="200"/>
                        </Array>
                    </mxGeometry>
                </mxCell>
                <mxCell id="msg2" value="2: createProduct(name, sku, category_id, unit, description)" style="html=1;verticalAlign=bottom;endArrow=block;edgeStyle=elbowEdgeStyle;elbow=vertical;curved=0;rounded=0;" parent="1" edge="1">
                    <mxGeometry width="80" relative="1" as="geometry">
                        <mxPoint x="275" y="230" as="sourcePoint"/>
                        <mxPoint x="435" y="230" as="targetPoint"/>
                    </mxGeometry>
                </mxCell>
                <mxCell id="msg3" value="3: getCategory(category_id)" style="html=1;verticalAlign=bottom;endArrow=block;edgeStyle=elbowEdgeStyle;elbow=vertical;curved=0;rounded=0;" parent="1" edge="1">
                    <mxGeometry width="80" relative="1" as="geometry">
                        <mxPoint x="445" y="260" as="sourcePoint"/>
                        <mxPoint x="765" y="260" as="targetPoint"/>
                    </mxGeometry>
                </mxCell>
                <mxCell id="msg4" value="4: query category" style="html=1;verticalAlign=bottom;endArrow=block;edgeStyle=elbowEdgeStyle;elbow=vertical;curved=0;rounded=0;" parent="1" edge="1">
                    <mxGeometry width="80" relative="1" as="geometry">
                        <mxPoint x="775" y="290" as="sourcePoint"/>
                        <mxPoint x="1085" y="290" as="targetPoint"/>
                    </mxGeometry>
                </mxCell>
                <mxCell id="msg5" value="5: category data" style="html=1;verticalAlign=bottom;endArrow=open;dashed=1;endSize=8;edgeStyle=elbowEdgeStyle;elbow=vertical;curved=0;rounded=0;" parent="1" edge="1">
                    <mxGeometry relative="1" as="geometry">
                        <mxPoint x="1085" y="320" as="sourcePoint"/>
                        <mxPoint x="775" y="320" as="targetPoint"/>
                    </mxGeometry>
                </mxCell>
                <mxCell id="msg6" value="6: category" style="html=1;verticalAlign=bottom;endArrow=open;dashed=1;endSize=8;edgeStyle=elbowEdgeStyle;elbow=vertical;curved=0;rounded=0;" parent="1" edge="1">
                    <mxGeometry relative="1" as="geometry">
                        <mxPoint x="765" y="350" as="sourcePoint"/>
                        <mxPoint x="445" y="350" as="targetPoint"/>
                    </mxGeometry>
                </mxCell>
                <mxCell id="msg7" value="7: create()" style="html=1;verticalAlign=bottom;endArrow=block;edgeStyle=elbowEdgeStyle;elbow=vertical;curved=0;rounded=0;" parent="1" edge="1">
                    <mxGeometry width="80" relative="1" as="geometry">
                        <mxPoint x="445" y="380" as="sourcePoint"/>
                        <mxPoint x="605" y="380" as="targetPoint"/>
                    </mxGeometry>
                </mxCell>
                <mxCell id="msg8" value="8: insert product data" style="html=1;verticalAlign=bottom;endArrow=block;edgeStyle=elbowEdgeStyle;elbow=vertical;curved=0;rounded=0;" parent="1" edge="1">
                    <mxGeometry width="80" relative="1" as="geometry">
                        <mxPoint x="615" y="410" as="sourcePoint"/>
                        <mxPoint x="1085" y="410" as="targetPoint"/>
                    </mxGeometry>
                </mxCell>
                <mxCell id="msg9" value="9: product created" style="html=1;verticalAlign=bottom;endArrow=open;dashed=1;endSize=8;edgeStyle=elbowEdgeStyle;elbow=vertical;curved=0;rounded=0;" parent="1" edge="1">
                    <mxGeometry relative="1" as="geometry">
                        <mxPoint x="1085" y="440" as="sourcePoint"/>
                        <mxPoint x="615" y="440" as="targetPoint"/>
                    </mxGeometry>
                </mxCell>
                <mxCell id="msg10" value="10: create initial inventory" style="html=1;verticalAlign=bottom;endArrow=block;edgeStyle=elbowEdgeStyle;elbow=vertical;curved=0;rounded=0;" parent="1" edge="1">
                    <mxGeometry width="80" relative="1" as="geometry">
                        <mxPoint x="615" y="470" as="sourcePoint"/>
                        <mxPoint x="925" y="470" as="targetPoint"/>
                    </mxGeometry>
                </mxCell>
                <mxCell id="msg11" value="11: product created" style="html=1;verticalAlign=bottom;endArrow=open;dashed=1;endSize=8;edgeStyle=elbowEdgeStyle;elbow=vertical;curved=0;rounded=0;" parent="1" edge="1">
                    <mxGeometry relative="1" as="geometry">
                        <mxPoint x="605" y="500" as="sourcePoint"/>
                        <mxPoint x="445" y="500" as="targetPoint"/>
                    </mxGeometry>
                </mxCell>
                <mxCell id="msg12" value="12: product creation successful" style="html=1;verticalAlign=bottom;endArrow=open;dashed=1;endSize=8;edgeStyle=elbowEdgeStyle;elbow=vertical;curved=0;rounded=0;" parent="1" edge="1">
                    <mxGeometry relative="1" as="geometry">
                        <mxPoint x="435" y="530" as="sourcePoint"/>
                        <mxPoint x="275" y="530" as="targetPoint"/>
                    </mxGeometry>
                </mxCell>
                <mxCell id="msg13" value="13: Hiển thị thông báo tạo sản phẩm thành công" style="html=1;verticalAlign=bottom;endArrow=open;dashed=1;endSize=8;edgeStyle=elbowEdgeStyle;elbow=vertical;curved=0;rounded=0;" parent="1" edge="1">
                    <mxGeometry relative="1" as="geometry">
                        <mxPoint x="265" y="560" as="sourcePoint"/>
                        <mxPoint x="125" y="560" as="targetPoint"/>
                    </mxGeometry>
                </mxCell>
                <mxCell id="update_title" value="&lt;b&gt;Cập nhật sản phẩm&lt;/b&gt;" style="text;html=1;strokeColor=none;fillColor=none;align=left;verticalAlign=middle;whiteSpace=wrap;rounded=0;" vertex="1" parent="1">
                    <mxGeometry x="40" y="590" width="80" height="30" as="geometry"/>
                </mxCell>
                <mxCell id="msg14" value="14: Chọn sản phẩm để cập nhật" style="html=1;verticalAlign=bottom;endArrow=block;edgeStyle=elbowEdgeStyle;elbow=vertical;curved=0;rounded=0;" parent="1" edge="1">
                    <mxGeometry width="80" relative="1" as="geometry">
                        <mxPoint x="125" y="620" as="sourcePoint"/>
                        <mxPoint x="265" y="620" as="targetPoint"/>
                    </mxGeometry>
                </mxCell>
                <mxCell id="msg15" value="15: getProduct(productId)" style="html=1;verticalAlign=bottom;endArrow=block;edgeStyle=elbowEdgeStyle;elbow=vertical;curved=0;rounded=0;" parent="1" edge="1">
                    <mxGeometry width="80" relative="1" as="geometry">
                        <mxPoint x="275" y="650" as="sourcePoint"/>
                        <mxPoint x="435" y="650" as="targetPoint"/>
                    </mxGeometry>
                </mxCell>
                <mxCell id="msg16" value="16: getProduct(productId)" style="html=1;verticalAlign=bottom;endArrow=block;edgeStyle=elbowEdgeStyle;elbow=vertical;curved=0;rounded=0;" parent="1" edge="1">
                    <mxGeometry width="80" relative="1" as="geometry">
                        <mxPoint x="445" y="680" as="sourcePoint"/>
                        <mxPoint x="605" y="680" as="targetPoint"/>
                    </mxGeometry>
                </mxCell>
                <mxCell id="msg17" value="17: query product" style="html=1;verticalAlign=bottom;endArrow=block;edgeStyle=elbowEdgeStyle;elbow=vertical;curved=0;rounded=0;" edge="1" parent="1">
                    <mxGeometry width="80" relative="1" as="geometry">
                        <mxPoint x="615" y="710" as="sourcePoint"/>
                        <mxPoint x="1085" y="710" as="targetPoint"/>
                    </mxGeometry>
                </mxCell>
                <mxCell id="msg18" value="18: product data" style="html=1;verticalAlign=bottom;endArrow=open;dashed=1;endSize=8;edgeStyle=elbowEdgeStyle;elbow=vertical;curved=0;rounded=0;" edge="1" parent="1">
                    <mxGeometry relative="1" as="geometry">
                        <mxPoint x="1085" y="740" as="sourcePoint"/>
                        <mxPoint x="615" y="740" as="targetPoint"/>
                    </mxGeometry>
                </mxCell>
                <mxCell id="msg19" value="19: product" style="html=1;verticalAlign=bottom;endArrow=open;dashed=1;endSize=8;edgeStyle=elbowEdgeStyle;elbow=vertical;curved=0;rounded=0;" edge="1" parent="1">
                    <mxGeometry relative="1" as="geometry">
                        <mxPoint x="605" y="770" as="sourcePoint"/>
                        <mxPoint x="445" y="770" as="targetPoint"/>
                    </mxGeometry>
                </mxCell>
                <mxCell id="msg20" value="20: product details" style="html=1;verticalAlign=bottom;endArrow=open;dashed=1;endSize=8;edgeStyle=elbowEdgeStyle;elbow=vertical;curved=0;rounded=0;" edge="1" parent="1">
                    <mxGeometry relative="1" as="geometry">
                        <mxPoint x="435" y="800" as="sourcePoint"/>
                        <mxPoint x="275" y="800" as="targetPoint"/>
                    </mxGeometry>
                </mxCell>
                <mxCell id="msg21" value="21: Hiển thị form cập nhật với dữ liệu sản phẩm" style="html=1;verticalAlign=bottom;endArrow=open;dashed=1;endSize=8;edgeStyle=elbowEdgeStyle;elbow=vertical;curved=0;rounded=0;" edge="1" parent="1">
                    <mxGeometry relative="1" as="geometry">
                        <mxPoint x="265" y="830" as="sourcePoint"/>
                        <mxPoint x="125" y="830" as="targetPoint"/>
                    </mxGeometry>
                </mxCell>
                <mxCell id="msg22" value="22: Nhập thông tin cập nhật" style="html=1;verticalAlign=bottom;endArrow=block;edgeStyle=elbowEdgeStyle;elbow=vertical;curved=0;rounded=0;" edge="1" parent="1">
                    <mxGeometry width="80" relative="1" as="geometry">
                        <mxPoint x="125" y="860" as="sourcePoint"/>
                        <mxPoint x="265" y="860" as="targetPoint"/>
                    </mxGeometry>
                </mxCell>
                <mxCell id="msg23" value="23: updateProduct(productId, updatedData)" style="html=1;verticalAlign=bottom;endArrow=block;edgeStyle=elbowEdgeStyle;elbow=vertical;curved=0;rounded=0;" edge="1" parent="1">
                    <mxGeometry width="80" relative="1" as="geometry">
                        <mxPoint x="275" y="890" as="sourcePoint"/>
                        <mxPoint x="435" y="890" as="targetPoint"/>
                    </mxGeometry>
                </mxCell>
                <mxCell id="msg24" value="24: update(updatedData)" style="html=1;verticalAlign=bottom;endArrow=block;edgeStyle=elbowEdgeStyle;elbow=vertical;curved=0;rounded=0;" edge="1" parent="1">
                    <mxGeometry width="80" relative="1" as="geometry">
                        <mxPoint x="445" y="920" as="sourcePoint"/>
                        <mxPoint x="605" y="920" as="targetPoint"/>
                    </mxGeometry>
                </mxCell>
                <mxCell id="msg25" value="25: update product data" style="html=1;verticalAlign=bottom;endArrow=block;edgeStyle=elbowEdgeStyle;elbow=vertical;curved=0;rounded=0;" edge="1" parent="1">
                    <mxGeometry width="80" relative="1" as="geometry">
                        <mxPoint x="615" y="950" as="sourcePoint"/>
                        <mxPoint x="1085" y="950" as="targetPoint"/>
                    </mxGeometry>
                </mxCell>
                <mxCell id="msg26" value="26: update successful" style="html=1;verticalAlign=bottom;endArrow=open;dashed=1;endSize=8;edgeStyle=elbowEdgeStyle;elbow=vertical;curved=0;rounded=0;" edge="1" parent="1">
                    <mxGeometry relative="1" as="geometry">
                        <mxPoint x="1085" y="980" as="sourcePoint"/>
                        <mxPoint x="615" y="980" as="targetPoint"/>
                    </mxGeometry>
                </mxCell>
                <mxCell id="msg27" value="27: update successful" style="html=1;verticalAlign=bottom;endArrow=open;dashed=1;endSize=8;edgeStyle=elbowEdgeStyle;elbow=vertical;curved=0;rounded=0;" edge="1" parent="1">
                    <mxGeometry relative="1" as="geometry">
                        <mxPoint x="605" y="1010" as="sourcePoint"/>
                        <mxPoint x="445" y="1010" as="targetPoint"/>
                    </mxGeometry>
                </mxCell>
                <mxCell id="msg28" value="28: product update successful" style="html=1;verticalAlign=bottom;endArrow=open;dashed=1;endSize=8;edgeStyle=elbowEdgeStyle;elbow=vertical;curved=0;rounded=0;" edge="1" parent="1">
                    <mxGeometry relative="1" as="geometry">
                        <mxPoint x="435" y="1040" as="sourcePoint"/>
                        <mxPoint x="275" y="1040" as="targetPoint"/>
                    </mxGeometry>
                </mxCell>
                <mxCell id="msg29" value="29: Hiển thị thông báo cập nhật thành công" style="html=1;verticalAlign=bottom;endArrow=open;dashed=1;endSize=8;edgeStyle=elbowEdgeStyle;elbow=vertical;curved=0;rounded=0;" edge="1" parent="1">
                    <mxGeometry relative="1" as="geometry">
                        <mxPoint x="265" y="1070" as="sourcePoint"/>
                        <mxPoint x="125" y="1070" as="targetPoint"/>
                    </mxGeometry>
                </mxCell>
                <mxCell id="diagram_title" value="&lt;font style=&quot;font-size: 14px;&quot;&gt;&lt;b&gt;2. ProductManagementSequence&lt;/b&gt;&lt;/font&gt;" style="text;html=1;strokeColor=none;fillColor=none;align=center;verticalAlign=middle;whiteSpace=wrap;rounded=0;" parent="1" vertex="1">
                    <mxGeometry x="500" y="20" width="220" height="30" as="geometry"/>
                </mxCell>
            </root>
        </mxGraphModel>
    </diagram>
</mxfile>